<svg width="20" height="20" viewBox="0 0 20 20" fill="none" xmlns="http://www.w3.org/2000/svg">
	<path d="M19.6939 18.2172L14.7676 13.2625C16.1287 11.6887 16.8197 9.67311 16.7002 7.6248C16.5808 5.57648 15.6599 3.6488 14.1244 2.23286C12.5888 0.816922 10.5537 0.018765 8.43186 0.00032669C6.31001 -0.0181116 4.26037 0.74455 2.69877 2.13358C1.13717 3.52261 0.180579 5.43397 0.0230696 7.47988C-0.13444 9.52578 0.51893 11.553 1.85062 13.1503C3.18231 14.7475 5.09259 15.7951 7.19388 16.0806C9.29517 16.3661 11.4301 15.8681 13.1655 14.6875L18.1299 19.677C18.3302 19.8783 18.6049 19.9944 18.8937 19.9998C19.1824 20.0052 19.4616 19.8996 19.6699 19.7061C19.8767 19.5114 19.9954 19.2454 19.9999 18.9664C20.0044 18.6874 19.8944 18.418 19.6939 18.2172ZM8.37135 2.09276C9.59315 2.09238 10.7876 2.44227 11.8038 3.0982C12.8199 3.75412 13.6121 4.68663 14.0801 5.7778C14.5481 6.86898 14.671 8.06983 14.4331 9.22851C14.1953 10.3872 13.6075 11.4517 12.7439 12.2874C11.8804 13.1231 10.78 13.6925 9.5818 13.9235C8.38361 14.1546 7.14145 14.037 6.0124 13.5855C4.88334 13.1341 3.91808 12.3691 3.23867 11.3873C2.55926 10.4055 2.19621 9.25099 2.19541 8.06971C2.19647 6.48584 2.8473 4.96706 4.00511 3.84655C5.16292 2.72604 6.73317 2.09532 8.37135 2.09276Z" fill="#434343" />
</svg>
