<svg width="100" height="100" viewBox="0 0 100 100" fill="none" xmlns="http://www.w3.org/2000/svg">
	<circle cx="50" cy="50" r="50" fill="#E40A0A" />
	<path fill-rule="evenodd" clip-rule="evenodd" d="M61.1782 38.8215C61.8291 39.4724 61.8291 40.5276 61.1782 41.1785L41.1782 61.1785C40.5273 61.8294 39.472 61.8294 38.8212 61.1785C38.1703 60.5276 38.1703 59.4724 38.8212 58.8215L58.8212 38.8215C59.472 38.1706 60.5273 38.1706 61.1782 38.8215Z" fill="white" />
	<path fill-rule="evenodd" clip-rule="evenodd" d="M38.8212 38.8215C39.472 38.1706 40.5273 38.1706 41.1782 38.8215L61.1782 58.8215C61.8291 59.4724 61.8291 60.5276 61.1782 61.1785C60.5273 61.8294 59.472 61.8294 58.8212 61.1785L38.8212 41.1785C38.1703 40.5276 38.1703 39.4724 38.8212 38.8215Z" fill="white" />
</svg>
