<svg width="22" height="22" viewBox="0 0 22 22" fill="none" xmlns="http://www.w3.org/2000/svg">
	<path fill-rule="evenodd" clip-rule="evenodd" d="M9.9 9.9H6.59494C6.00123 9.9 5.5 10.3925 5.5 11C5.5 11.6117 5.99022 12.1 6.59494 12.1H9.9V15.4051C9.9 15.9988 10.3925 16.5 11 16.5C11.6117 16.5 12.1 16.0098 12.1 15.4051V12.1H15.4051C15.9988 12.1 16.5 11.6075 16.5 11C16.5 10.3883 16.0098 9.9 15.4051 9.9H12.1V6.59494C12.1 6.00123 11.6075 5.5 11 5.5C10.3883 5.5 9.9 5.99022 9.9 6.59494V9.9ZM11 22C4.92487 22 0 17.0751 0 11C0 4.92487 4.92487 0 11 0C17.0751 0 22 4.92487 22 11C22 17.0751 17.0751 22 11 22Z" fill="white" />
</svg>
