<svg width="100" height="100" viewBox="0 0 100 100" fill="none" xmlns="http://www.w3.org/2000/svg">
<circle cx="50" cy="50" r="50" fill="#FFF5F5"/>
<path d="M36.5786 66.0638C35.7817 66.0638 34.9848 65.9044 34.1879 65.4262C31.9565 64.1512 31.1596 61.1229 32.4347 58.8916L45.982 36.2596C46.4602 35.622 46.9383 34.9845 47.5758 34.6658C48.6915 34.0282 49.9666 33.8688 51.2416 34.1876C52.5166 34.5064 53.4729 35.3033 54.2698 36.4189L67.6578 58.8916C68.136 59.6885 68.2953 60.4854 68.2953 61.2823C68.2953 62.5574 67.8172 63.8324 66.8609 64.6293C66.064 65.5856 64.9483 66.0638 63.6733 66.0638H36.5786ZM48.6915 38.0127L35.3035 60.4854C34.8254 61.2823 35.1442 62.2386 35.9411 62.7168C36.1004 62.8761 36.4192 62.8761 36.5786 62.8761H63.5139C63.9921 62.8761 64.3108 62.7168 64.6296 62.398C64.9483 62.0792 65.1077 61.7605 65.1077 61.2823C65.1077 60.9636 65.1077 60.8042 64.9483 60.4854L51.5604 38.0127C51.0822 37.2158 50.1259 37.0565 49.329 37.3752C49.0103 37.5346 48.8509 37.694 48.6915 38.0127Z" fill="#C60000"/>
<path d="M50.1259 53.3133C49.1697 53.3133 48.5321 52.6758 48.5321 51.7195V45.3443C48.5321 44.388 49.1697 43.7505 50.1259 43.7505C51.0822 43.7505 51.7197 44.388 51.7197 45.3443V51.7195C51.7197 52.6758 51.0822 53.3133 50.1259 53.3133Z" fill="#C60000"/>
<path d="M50.1259 59.6885C49.6478 59.6885 49.329 59.5291 49.0103 59.2104C48.6915 58.8916 48.5321 58.5729 48.5321 58.0947C48.5321 57.9353 48.5321 57.6166 48.6915 57.4572C48.8509 57.2978 48.8509 57.1384 49.0103 56.979C49.1697 56.8197 49.329 56.6603 49.4884 56.6603C49.8072 56.5009 50.1259 56.5009 50.4447 56.5009C50.6041 56.5009 50.6041 56.5009 50.7635 56.6603C50.9228 56.6603 50.9228 56.6603 51.0822 56.8197C51.0822 56.8197 51.2416 56.979 51.401 56.979C51.5604 57.1384 51.7197 57.2978 51.7197 57.4572C51.7197 57.6166 51.8791 57.9353 51.8791 58.0947C51.8791 58.5729 51.7197 58.8916 51.401 59.2104C50.9228 59.5291 50.6041 59.6885 50.1259 59.6885Z" fill="#C60000"/>
</svg>
