<svg width="100" height="102" viewBox="0 0 100 102" fill="none" xmlns="http://www.w3.org/2000/svg">
	<path d="M14.7047 87.0013C19.2865 91.6746 24.6238 95.3444 30.5685 97.9092C36.7271 100.566 43.2647 101.913 49.9999 101.913C56.735 101.913 63.2727 100.566 69.4313 97.9092C75.3759 95.3444 80.7133 91.6745 85.2953 87.0013C89.8769 82.3277 93.4751 76.8837 95.9893 70.82C98.5941 64.5382 99.915 57.8697 99.915 51.0001C99.915 44.13 98.5941 37.4616 95.9893 31.18C93.4751 25.1163 89.8768 19.6723 85.2953 14.9989C80.7133 10.3254 75.3761 6.65542 69.4313 4.0908C63.2725 1.4337 56.735 0.0866699 49.9999 0.0866699C43.2647 0.0866699 36.7271 1.43387 30.5685 4.0908C24.6238 6.65542 19.2865 10.3256 14.7047 14.9989C10.1229 19.6722 6.52489 25.1163 4.01039 31.1799C1.40574 37.4616 0.0849609 44.13 0.0849609 51.0001C0.0849609 57.8699 1.40574 64.5382 4.01056 70.82C6.52489 76.8837 10.1231 82.3277 14.7047 87.0013ZM49.9999 7.51926C73.5428 7.51926 92.6279 26.9863 92.6279 51.0001C92.6279 75.0138 73.5428 94.4806 49.9999 94.4806C26.457 94.4806 7.37179 75.0138 7.37179 51.0001C7.37179 26.9863 26.457 7.51926 49.9999 7.51926Z" fill="#3384FF" />
	<path d="M50 102C43.2529 102 36.7043 100.651 30.5355 97.9893C24.5805 95.42 19.2341 91.7437 14.6448 87.0626C10.0551 82.381 6.45099 76.9275 3.9324 70.8537C1.32299 64.5612 0 57.8814 0 51.0002C0 44.1188 1.32299 37.4388 3.93223 31.1461C6.45082 25.0723 10.0551 19.619 14.6446 14.9375C19.2341 10.2561 24.5806 6.57986 30.5353 4.01089C36.7046 1.34946 43.2534 0 49.9998 0C56.7468 0 63.2956 1.34946 69.4642 4.01107C75.419 6.58003 80.7654 10.2564 85.3552 14.9377C89.9451 19.6195 93.5492 25.0728 96.0676 31.1463C98.677 37.439 100 44.1188 100 51.0002C100 57.8814 98.677 64.5612 96.0676 70.8539C93.5492 76.9275 89.9452 82.3808 85.3552 87.0628C80.7658 91.7438 75.4192 95.42 69.4642 97.9895C63.2956 100.651 56.7468 102 50 102ZM50 0.173497C43.2764 0.173497 36.75 1.51827 30.6018 4.17068C24.6674 6.73097 19.339 10.3947 14.765 15.0602C10.1908 19.7259 6.59897 25.1606 4.08889 31.2136C1.48849 37.485 0.170094 44.142 0.170094 51.0002C0.170094 57.858 1.48849 64.5152 4.08889 70.7864C6.59897 76.8395 10.1908 82.2743 14.765 86.94C19.3388 91.6051 24.667 95.2689 30.6018 97.8295C36.7493 100.482 43.2758 101.827 50 101.827C56.7242 101.827 63.2505 100.482 69.3982 97.8293C75.3328 95.2689 80.6612 91.6051 85.235 86.94C89.8093 82.2738 93.401 76.839 95.9108 70.7864C98.5113 64.5152 99.8299 57.8581 99.8299 51.0002C99.8299 44.142 98.5113 37.485 95.9108 31.2139C93.4012 25.1612 89.8093 19.7264 85.235 15.0604C80.6608 10.3949 75.3325 6.73114 69.3982 4.17086C63.2503 1.51827 56.7238 0.173497 50 0.173497ZM50 94.5674C38.5909 94.5674 27.8646 90.0357 19.7972 81.8069C11.7299 73.578 7.28683 62.6374 7.28683 51.0002C7.28683 39.3629 11.7297 28.422 19.7972 20.1933C27.8646 11.9645 38.5909 7.43259 50 7.43259C61.4091 7.43259 72.1352 11.9645 80.2026 20.1933C88.2701 28.4222 92.713 39.3629 92.713 51.0002C92.713 62.6374 88.2701 73.5781 80.2026 81.8069C72.1352 90.0357 61.4089 94.5674 50 94.5674ZM50 7.60609C38.6364 7.60609 27.9529 12.1199 19.9175 20.3159C11.8823 28.5121 7.45692 39.4092 7.45692 51.0002C7.45692 62.5911 11.8823 73.4883 19.9175 81.6841C27.9527 89.8801 38.6364 94.3939 50 94.3939C61.3636 94.3939 72.0471 89.8801 80.0823 81.6841C88.1176 73.4883 92.5429 62.591 92.5429 51.0002C92.5429 39.4092 88.1176 28.5119 80.0823 20.3159C72.0469 12.1198 61.3636 7.60609 50 7.60609Z" fill="#3384FF" />
	<path d="M39.3959 69.5345C40.0791 70.2317 41.0058 70.6229 41.9721 70.6229C42.9386 70.6229 43.8651 70.2315 44.5483 69.5345L75.7412 37.7179C77.1641 36.2666 77.1641 33.9136 75.7412 32.4623C74.3184 31.011 72.0114 31.0108 70.5886 32.4623L41.9721 61.6514L30.3026 49.7483C28.8798 48.2968 26.573 48.2968 25.1501 49.7483C23.7273 51.1996 23.7273 53.5526 25.1501 55.0039L39.3959 69.5345Z" fill="#3384FF" />
	<path d="M41.9724 70.7106C40.9765 70.7106 40.0401 70.315 39.3359 69.5967L25.0902 55.0661C23.6366 53.5832 23.6366 51.1705 25.0902 49.6877C25.7944 48.9692 26.7308 48.5736 27.7267 48.5736C28.7226 48.5736 29.6588 48.9692 30.3631 49.6877L41.9726 61.5293L70.5288 32.4017C71.233 31.6832 72.1693 31.2878 73.1652 31.2878C74.161 31.2878 75.0973 31.6834 75.8017 32.4017C76.506 33.12 76.8939 34.0751 76.8939 35.0909C76.8939 36.1067 76.506 37.0616 75.8017 37.7801L44.6088 69.5967C43.9048 70.315 42.9685 70.7106 41.9724 70.7106ZM27.7267 48.7473C26.7762 48.7473 25.8827 49.1248 25.2106 49.8105C23.8234 51.2257 23.8234 53.5282 25.2106 54.9434L39.4563 69.4741C40.1284 70.1596 41.0219 70.5371 41.9724 70.5371C42.923 70.5371 43.8165 70.1596 44.4886 69.4741L75.6813 37.6574C76.3533 36.9719 76.7236 36.0604 76.7236 35.0911C76.7236 34.1217 76.3533 33.21 75.6813 32.5245C75.0092 31.8389 74.1155 31.4615 73.1651 31.4615C72.2146 31.4615 71.3209 31.839 70.6489 32.5245L41.9724 61.7748L30.2427 49.8105C29.5707 49.1248 28.6772 48.7473 27.7267 48.7473Z" fill="#3384FF" />
</svg>
