<svg width="210" height="26" viewBox="0 0 210 26" fill="none" xmlns="http://www.w3.org/2000/svg">
	<g clip-path="url(#clip0)">
		<path d="M54.2338 9.18128C55.5788 9.18128 56.6339 9.72918 57.6715 10.6237L59.5533 8.56073C58.3058 7.39228 56.7913 6.58881 54.254 6.58881C50.1249 6.58881 47.2451 9.56464 47.2451 13.1978V13.2345C47.2451 16.9036 50.1829 19.8059 54.138 19.8059C56.7306 19.8059 58.2662 18.9306 59.649 17.5241L57.7672 15.7158C56.7112 16.6287 55.7703 17.2134 54.2338 17.2134C51.9321 17.2134 50.3367 15.3876 50.3367 13.1978V13.1619C50.3367 10.9703 51.969 9.18128 54.2338 9.18128Z" fill="white" />
		<path d="M76.9361 17.0865H69.6399V14.403H75.9768V11.9025H69.6399V9.30998H76.8403V6.80853H66.7021V19.5871H76.9361V17.0865Z" fill="white" />
		<path d="M86.9838 6.80853H84.2568V19.5871H87.1753V11.464L93.6843 19.5871H96.1995V6.80853H93.281V14.6761L86.9838 6.80853Z" fill="white" />
		<path d="M103.156 9.40101H107.246V19.5871H110.203V9.40101H114.292V6.80853H103.156V9.40101Z" fill="white" />
		<path d="M132.463 11.0613V11.0255C132.463 9.82112 132.06 8.81634 131.31 8.10389C130.427 7.26541 129.101 6.80853 127.394 6.80853H121.25V19.5845H124.207V15.498H126.53L129.409 19.5845H132.866L129.582 15.0209C131.292 14.4205 132.463 13.1243 132.463 11.0613ZM129.467 11.2084C129.467 12.2849 128.639 13.0149 127.202 13.0149H124.207V9.34411H127.142C128.581 9.34411 129.464 9.96466 129.464 11.169L129.467 11.2084Z" fill="white" />
		<path d="M142.913 6.80853H139.956V19.5871H142.913V6.80853Z" fill="white" />
		<path d="M157.356 17.2134C155.054 17.2134 153.458 15.3876 153.458 13.1978V13.1619C153.458 10.9738 155.09 9.18128 157.356 9.18128C158.701 9.18128 159.756 9.72918 160.794 10.6237L162.678 8.56073C161.431 7.39228 159.916 6.58881 157.379 6.58881C153.25 6.58881 150.371 9.56464 150.371 13.1978V13.2345C150.371 16.9036 153.308 19.8059 157.263 19.8059C159.856 19.8059 161.391 18.9306 162.774 17.5241L160.892 15.7158C159.834 16.6287 158.892 17.2134 157.356 17.2134Z" fill="white" />
		<path d="M172.915 6.80853H169.958V19.5871H172.915V6.80853Z" fill="white" />
		<path d="M180.003 9.40101H184.093V19.5871H187.05V9.40101H191.14V6.80853H180.003V9.40101Z" fill="white" />
		<path d="M206.64 6.80853L203.376 11.9383L200.168 6.80853H196.712L201.877 14.5483V19.5871H204.834V14.4941L210 6.80853H206.64Z" fill="white" />
		<path d="M34.9898 16.0835H23.9089C23.8233 16.0837 23.7386 16.1 23.6596 16.1314C23.5806 16.1628 23.5089 16.2087 23.4486 16.2664L20.8054 18.8046L19.2072 20.338L25.0533 25.9501C25.1683 25.9096 25.2727 25.8457 25.3589 25.7628L35.1233 16.3845C35.1501 16.36 35.1685 16.3283 35.176 16.2937C35.1835 16.259 35.1798 16.223 35.1653 16.1904C35.1509 16.1578 35.1264 16.1302 35.095 16.1111C35.0637 16.092 35.027 16.0823 34.9898 16.0835Z" fill="url(#paint0_linear)" />
		<path d="M11.5666 13.0003L18.3886 6.4508L19.2172 5.65083L13.3794 0.0667725C13.2259 0.121052 13.0867 0.206472 12.9715 0.317091L0.164364 12.6221C0.0598782 12.7219 0.000993864 12.8568 0.000488281 12.9976H11.5638L11.5666 13.0003Z" fill="white" />
		<path d="M22.7003 8.97233L23.6089 9.83969C23.6413 9.87053 23.6798 9.89499 23.7221 9.91167C23.7645 9.92834 23.8098 9.9369 23.8557 9.93685H35.118C35.1461 9.93706 35.1737 9.9293 35.1972 9.91456C35.2207 9.89982 35.239 9.87876 35.2499 9.85407C35.2607 9.82939 35.2636 9.80218 35.2582 9.77593C35.2527 9.74968 35.2392 9.72556 35.2192 9.70666L34.9523 9.45021L25.3582 0.240892C25.2714 0.158541 25.1672 0.09469 25.0525 0.0535889L19.222 5.65515L22.7003 8.97233Z" fill="url(#paint1_linear)" />
		<path d="M25.0529 0.0525179C24.9567 0.0179459 24.8547 0.000153035 24.7519 0H13.7814C13.6443 0.000114376 13.5083 0.0238358 13.38 0.0700185L19.2224 5.6497L25.0529 0.0525179Z" fill="url(#paint2_linear)" />
		<path d="M14.6079 15.9189L11.5698 13H1.42575e-07C-0.000106072 13.1426 0.0591371 13.2795 0.164797 13.3807L13.0539 25.7567C13.1399 25.8399 13.2443 25.9038 13.3595 25.944L19.2047 20.3319L14.6079 15.9189Z" fill="url(#paint3_linear)" />
		<path d="M13.3616 25.9466C13.4574 25.9815 13.5591 25.9995 13.6617 26H24.7518C24.8547 25.9995 24.9567 25.9815 25.0529 25.9466L19.2068 20.3345L13.3616 25.9466Z" fill="url(#paint4_linear)" />
	</g>
	<defs>
		<linearGradient id="paint0_linear" x1="13.3058" y1="21.0137" x2="35.44" y2="21.0137" gradientUnits="userSpaceOnUse">
			<stop stop-color="#0086C6" />
			<stop offset="1" stop-color="#004D7A" />
		</linearGradient>
		<linearGradient id="paint1_linear" x1="8127.33" y1="7217.9" x2="11952.1" y2="7217.9" gradientUnits="userSpaceOnUse">
			<stop stop-color="#0086C6" />
			<stop offset="1" stop-color="#004D7A" />
		</linearGradient>
		<linearGradient id="paint2_linear" x1="5914.39" y1="3985.98" x2="7410.74" y2="3985.98" gradientUnits="userSpaceOnUse">
			<stop stop-color="#0086C6" />
			<stop offset="1" stop-color="#004D7A" />
		</linearGradient>
		<linearGradient id="paint3_linear" x1="6883.36" y1="11607.3" x2="12170.4" y2="11607.3" gradientUnits="userSpaceOnUse">
			<stop stop-color="#0086C6" />
			<stop offset="1" stop-color="#004D7A" />
		</linearGradient>
		<linearGradient id="paint4_linear" x1="5923.67" y1="5334.19" x2="7422.38" y2="5334.19" gradientUnits="userSpaceOnUse">
			<stop stop-color="#0086C6" />
			<stop offset="1" stop-color="#004D7A" />
		</linearGradient>
		<clipPath id="clip0">
			<rect width="210" height="26" fill="white" />
		</clipPath>
	</defs>
</svg>
